<svg width="62" height="58" viewBox="0 0 62 58" fill="none" xmlns="http://www.w3.org/2000/svg">
<g clip-path="url(#clip0_1_179)">
<path fill-rule="evenodd" clip-rule="evenodd" d="M15.5 0.5H0V29H15.5C6.9396 29 0 35.38 0 43.25V57.5H31V43.25C31 51.12 37.9397 57.5 46.5 57.5H62V29H46.5C55.0603 29 62 22.62 62 14.75V0.5H31V14.75C31 6.87995 24.0604 0.5 15.5 0.5ZM31 29H15.5C24.0604 29 31 35.38 31 43.25V29ZM31 29V14.75C31 22.62 37.9397 29 46.5 29H31Z" fill="#2978B5"/>
<path d="M16.482 7.566C16.482 8.574 15.672 9.312 14.502 9.312C13.332 9.312 12.522 8.574 12.522 7.566C12.522 6.54 13.332 5.802 14.502 5.802C15.672 5.802 16.482 6.54 16.482 7.566ZM16.068 9.816V19.014C16.068 21.984 14.502 23.154 12.432 23.154C11.946 23.154 11.46 23.118 10.992 22.956V20.058C11.244 20.22 11.622 20.292 12.036 20.292C12.576 20.292 12.99 19.95 12.99 18.924V9.816H16.068Z" fill="white"/>
<path d="M41.396 43.658C41.396 40.85 43.106 38.636 45.716 38.636C46.724 38.636 47.588 38.996 48.344 39.716V35.576H51.422V48.5H48.596V47.402C47.804 48.23 46.85 48.68 45.716 48.68C43.106 48.68 41.396 46.43 41.396 43.658ZM44.6 43.658C44.6 45.17 45.518 45.908 46.454 45.908C47.408 45.908 48.308 45.17 48.308 43.64C48.308 42.092 47.39 41.408 46.454 41.408C45.518 41.408 44.6 42.11 44.6 43.658Z" fill="white"/>
</g>
<defs>
<clipPath id="clip0_1_179">
<rect width="62" height="57" fill="white" transform="translate(0 0.5)"/>
</clipPath>
</defs>
</svg>
