<svg width="62" height="57" viewBox="0 0 62 57" fill="none" xmlns="http://www.w3.org/2000/svg">
<g clip-path="url(#clip0_1_3)">
<path fill-rule="evenodd" clip-rule="evenodd" d="M15.5 0H0V28.5H15.5C6.9396 28.5 0 34.88 0 42.75V57H31V42.75C31 50.62 37.9397 57 46.5 57H62V28.5H46.5C55.0603 28.5 62 22.12 62 14.25V0H31V14.25C31 6.37995 24.0604 0 15.5 0ZM31 28.5H15.5C24.0604 28.5 31 34.88 31 42.75V28.5ZM31 28.5V14.25C31 22.12 37.9397 28.5 46.5 28.5H31Z" fill="black"/>
<path d="M16.482 7.066C16.482 8.074 15.672 8.812 14.502 8.812C13.332 8.812 12.522 8.074 12.522 7.066C12.522 6.04 13.332 5.302 14.502 5.302C15.672 5.302 16.482 6.04 16.482 7.066ZM16.068 9.316V18.514C16.068 21.484 14.502 22.654 12.432 22.654C11.946 22.654 11.46 22.618 10.992 22.456V19.558C11.244 19.72 11.622 19.792 12.036 19.792C12.576 19.792 12.99 19.45 12.99 18.424V9.316H16.068Z" fill="white"/>
<path d="M41.396 43.158C41.396 40.35 43.106 38.136 45.716 38.136C46.724 38.136 47.588 38.496 48.344 39.216V35.076H51.422V48H48.596V46.902C47.804 47.73 46.85 48.18 45.716 48.18C43.106 48.18 41.396 45.93 41.396 43.158ZM44.6 43.158C44.6 44.67 45.518 45.408 46.454 45.408C47.408 45.408 48.308 44.67 48.308 43.14C48.308 41.592 47.39 40.908 46.454 40.908C45.518 40.908 44.6 41.61 44.6 43.158Z" fill="white"/>
</g>
<defs>
<clipPath id="clip0_1_3">
<rect width="62" height="57" fill="white"/>
</clipPath>
</defs>
</svg>
